{
	"asset":{
		"generator":"Khronos glTF Blender I/O v4.2.69",
		"version":"2.0"
	},
	"scene":0,
	"scenes":[
		{
			"name":"Scene",
			"nodes":[
				0
			]
		}
	],
	"nodes":[
		{
			"mesh":0,
			"name":"bricks_B"
		}
	],
	"materials":[
		{
			"name":"block.001",
			"pbrMetallicRoughness":{
				"baseColorTexture":{
					"index":0
				},
				"metallicFactor":0,
				"roughnessFactor":0.4000000059604645
			}
		}
	],
	"meshes":[
		{
			"name":"bricks_B",
			"primitives":[
				{
					"attributes":{
						"POSITION":0,
						"NORMAL":1,
						"TEXCOORD_0":2
					},
					"indices":3,
					"material":0
				}
			]
		}
	],
	"textures":[
		{
			"sampler":0,
			"source":0
		}
	],
	"images":[
		{
			"mimeType":"image/png",
			"name":"block_bits_texture",
			"uri":"block_bits_texture.png"
		}
	],
	"accessors":[
		{
			"bufferView":0,
			"componentType":5126,
			"count":1010,
			"max":[
				1,
				2,
				1
			],
			"min":[
				-1,
				0,
				-1
			],
			"type":"VEC3"
		},
		{
			"bufferView":1,
			"componentType":5126,
			"count":1010,
			"type":"VEC3"
		},
		{
			"bufferView":2,
			"componentType":5126,
			"count":1010,
			"type":"VEC2"
		},
		{
			"bufferView":3,
			"componentType":5123,
			"count":2532,
			"type":"SCALAR"
		}
	],
	"bufferViews":[
		{
			"buffer":0,
			"byteLength":12120,
			"byteOffset":0,
			"target":34962
		},
		{
			"buffer":0,
			"byteLength":12120,
			"byteOffset":12120,
			"target":34962
		},
		{
			"buffer":0,
			"byteLength":8080,
			"byteOffset":24240,
			"target":34962
		},
		{
			"buffer":0,
			"byteLength":5064,
			"byteOffset":32320,
			"target":34963
		}
	],
	"samplers":[
		{
			"magFilter":9729,
			"minFilter":9987
		}
	],
	"buffers":[
		{
			"byteLength":37384,
			"uri":"bricks_B.bin"
		}
	]
}
