{
	"asset":{
		"generator":"Khronos glTF Blender I/O v4.2.69",
		"version":"2.0"
	},
	"scene":0,
	"scenes":[
		{
			"name":"Scene",
			"nodes":[
				0
			]
		}
	],
	"nodes":[
		{
			"mesh":0,
			"name":"gravel",
			"translation":[
				0.0006875269464217126,
				-1.9976118803024292,
				0.0005625606863759458
			]
		}
	],
	"materials":[
		{
			"name":"block",
			"pbrMetallicRoughness":{
				"baseColorTexture":{
					"index":0
				},
				"metallicFactor":0,
				"roughnessFactor":0.4000000059604645
			}
		}
	],
	"meshes":[
		{
			"name":"gravel",
			"primitives":[
				{
					"attributes":{
						"POSITION":0,
						"NORMAL":1,
						"TEXCOORD_0":2
					},
					"indices":3,
					"material":0
				}
			]
		}
	],
	"textures":[
		{
			"sampler":0,
			"source":0
		}
	],
	"images":[
		{
			"mimeType":"image/png",
			"name":"block_bits_texture",
			"uri":"block_bits_texture.png"
		}
	],
	"accessors":[
		{
			"bufferView":0,
			"componentType":5126,
			"count":1791,
			"max":[
				1.0436145067214966,
				1.0419138669967651,
				1.0437394380569458
			],
			"min":[
				-1.0449893474578857,
				-1.0466901063919067,
				-1.044864296913147
			],
			"type":"VEC3"
		},
		{
			"bufferView":1,
			"componentType":5126,
			"count":1791,
			"type":"VEC3"
		},
		{
			"bufferView":2,
			"componentType":5126,
			"count":1791,
			"type":"VEC2"
		},
		{
			"bufferView":3,
			"componentType":5123,
			"count":3246,
			"type":"SCALAR"
		}
	],
	"bufferViews":[
		{
			"buffer":0,
			"byteLength":21492,
			"byteOffset":0,
			"target":34962
		},
		{
			"buffer":0,
			"byteLength":21492,
			"byteOffset":21492,
			"target":34962
		},
		{
			"buffer":0,
			"byteLength":14328,
			"byteOffset":42984,
			"target":34962
		},
		{
			"buffer":0,
			"byteLength":6492,
			"byteOffset":57312,
			"target":34963
		}
	],
	"samplers":[
		{
			"magFilter":9729,
			"minFilter":9987
		}
	],
	"buffers":[
		{
			"byteLength":63804,
			"uri":"gravel.bin"
		}
	]
}
